<svg xmlns="http://www.w3.org/2000/svg" xmlns:xlink="http://www.w3.org/1999/xlink" id="Layer_1" x="0" y="0" enable-background="new 0 0 360 200" version="1.1" viewBox="0 0 360 200" xml:space="preserve"><style type="text/css">.st0,.st1,.st2,.st3{stroke:#1c425c;stroke-width:3;stroke-miterlimit:10}.st0{fill:none;stroke-linecap:round;stroke-linejoin:round}.st1{fill:#f7a600}.st2{fill:#00bfc0}.st3{fill:#9534a0}</style><g><line x1="100.1" x2="124.3" y1="100" y2="39" class="st0"/><line x1="100" x2="124" y1="162.5" y2="162.5" class="st0"/><line x1="100" x2="124" y1="101.5" y2="101.5" class="st0"/><line x1="168" x2="192" y1="40.5" y2="40.5" class="st0"/><line x1="168" x2="192" y1="101.5" y2="101.5" class="st0"/><line x1="235.7" x2="259.9" y1="39" y2="100" class="st0"/><line x1="236" x2="258" y1="101.5" y2="101.5" class="st0"/><line x1="168" x2="192" y1="162.5" y2="162.5" class="st0"/><line x1="235.7" x2="259.9" y1="161" y2="100" class="st0"/><rect width="45" height="45" x="55" y="79" class="st1"/><rect width="45" height="45" x="55" y="139.5" class="st1"/><rect width="45" height="45" x="122.6" y="17.4" class="st1"/><rect width="45" height="45" x="122.6" y="78.5" class="st1"/><rect width="45" height="45" x="122.6" y="139.6" class="st1"/><rect width="45" height="45" x="190.7" y="17.4" class="st2"/><rect width="45" height="45" x="190.7" y="78.5" class="st2"/><rect width="45" height="45" x="259.9" y="78.5" class="st3"/><rect width="45" height="45" x="190.7" y="139.6" class="st2"/></g></svg>