<svg xmlns="http://www.w3.org/2000/svg" xmlns:xlink="http://www.w3.org/1999/xlink" x="0" y="0" enable-background="new 0 0 598 216.6" version="1.1" viewBox="0 0 598 216.6" xml:space="preserve"><style type="text/css">.st4{fill:none;stroke:#1c425c;stroke-width:8;stroke-linecap:round;stroke-linejoin:round;stroke-miterlimit:10}.st7{fill:#1c425c}.st52{fill:#4ad9d9}.st52,.st53,.st54,.st57{stroke:#1c425c;stroke-width:8;stroke-linecap:round;stroke-linejoin:round;stroke-miterlimit:10}.st53{fill:#ff9311}.st54{fill:#94399e}.st57{fill:#fff1ce}</style><g id="Revised_color_icons"><g><g><rect width="166" height="83" x="61.7" y="39.8" class="st52"/><circle cx="103.2" cy="81.3" r="16.7" class="st57"/><circle cx="186.2" cy="81.3" r="16.7" class="st57"/></g><rect width="166" height="83" x="371.7" y="39.8" class="st53"/><circle cx="413.2" cy="81.3" r="16.7" class="st57"/><polyline points="594 103.8 575 122.8 23 122.8 4 103.8" class="st4"/><g><g><path d="M118,24h-5.7V0.6h6c3,0,4.8,0.6,6.4,2c1.6,1.4,2.5,3.5,2.5,5.8c0,2.3-0.9,4.4-2.5,5.8c-1.5,1.4-3.4,2-6.4,2 H118V24z M118.5,11c2.2,0,3.1-0.7,3.1-2.6c0-1.9-0.8-2.6-3.1-2.6H118V11H118.5z" class="st7"/><path d="M131.7,24V7.6l-2.2,1.2l-2.7-4.6l6.4-3.6h4.3V24H131.7z" class="st7"/><path d="M147.5,21.5c0,1.7-1.4,3.1-3.2,3.1c-1.8,0-3.2-1.4-3.2-3.1c0-1.7,1.5-3,3.2-3 C146.1,18.4,147.5,19.7,147.5,21.5z" class="st7"/><path d="M157.4,9.4c1.7,0,2.5-0.7,2.5-2.1c0-1.4-0.8-2.1-2.3-2.1c-1.3,0-1.9,0.4-3.4,2.3l-4.6-2.5 c2.2-3.5,4.5-4.9,8.1-4.9c4.6,0,8,3,8,7.1c0,1.8-0.6,3.2-1.8,4.4c1.6,1.5,2.3,3.1,2.3,5.2c0,4.5-3.6,7.9-8.5,7.9 c-3.2,0-6-1.5-7.4-4.1c-0.5-0.9-0.8-1.7-1.2-3.2l5.4-1.4c0.8,2.8,1.5,3.5,3.2,3.5c1.6,0,2.8-1.1,2.8-2.7c0-1.7-0.9-2.5-2.9-2.5 h-2.2V9.4H157.4z" class="st7"/><path d="M171.3,24V7.6l-2.2,1.2l-2.7-4.6l6.4-3.6h4.3V24H171.3z" class="st7"/></g></g><g><g><path d="M425.3,24h-5.7V0.6h6c3,0,4.8,0.6,6.4,2c1.6,1.4,2.5,3.5,2.5,5.8c0,2.3-0.9,4.4-2.5,5.8 c-1.5,1.4-3.4,2-6.4,2h-0.2V24z M425.8,11c2.2,0,3.1-0.7,3.1-2.6c0-1.9-0.8-2.6-3.1-2.6h-0.6V11H425.8z" class="st7"/><path d="M439,24V7.6l-2.2,1.2L434,4.2l6.4-3.6h4.3V24H439z" class="st7"/><path d="M454.8,21.5c0,1.7-1.4,3.1-3.2,3.1c-1.8,0-3.2-1.4-3.2-3.1c0-1.7,1.5-3,3.2-3 C453.3,18.4,454.8,19.7,454.8,21.5z" class="st7"/><path d="M464.7,9.4c1.7,0,2.5-0.7,2.5-2.1c0-1.4-0.8-2.1-2.3-2.1c-1.3,0-1.9,0.4-3.4,2.3l-4.6-2.5 c2.2-3.5,4.5-4.9,8.1-4.9c4.6,0,8,3,8,7.1c0,1.8-0.6,3.2-1.8,4.4c1.6,1.5,2.3,3.1,2.3,5.2c0,4.5-3.6,7.9-8.5,7.9 c-3.2,0-6-1.5-7.4-4.1c-0.5-0.9-0.8-1.7-1.2-3.2l5.4-1.4c0.8,2.8,1.5,3.5,3.2,3.5c1.6,0,2.8-1.1,2.8-2.7c0-1.7-0.9-2.5-2.9-2.5 h-2.2V9.4H464.7z" class="st7"/><path d="M475.4,19.7l8.1-8.9c1.5-1.6,2.1-2.7,2.1-3.9s-0.8-1.9-2.2-1.9c-1.7,0-2.3,0.7-3,3.4L475,7.1 c0.3-1.5,0.7-2.5,1.2-3.4c1.4-2.3,4-3.7,7.2-3.7c4.6,0,7.7,2.9,7.7,7.2c0,2.3-0.9,4.3-2.7,6.3l-4.8,5.3h7.9V24h-16.3V19.7z" class="st7"/></g></g><polygon points="493.9 64.5 513.3 98 474.6 98" class="st57"/><g><path d="M248.3,212.6l42.2-60.6c-4.1-2.9-6.9-7.7-6.9-13.1c0-8.8,7.2-16,16-16c8.8,0,16,7.2,16,16 c0,5.4-2.7,10.2-6.8,13.1l42.2,60.6H248.3z" class="st54"/><circle cx="299.7" cy="139" r="8.2" class="st7"/></g></g></g></svg>